<?xml version="1.0" encoding="utf-8"?>
<!-- Generator: Adobe Illustrator 27.1.1, SVG Export Plug-In . SVG Version: 6.00 Build 0)  -->
<svg version="1.1" id="Layer_1" xmlns="http://www.w3.org/2000/svg" xmlns:xlink="http://www.w3.org/1999/xlink" x="0px" y="0px"
	 viewBox="0 0 255.18 54.57" style="enable-background:new 0 0 255.18 54.57;" xml:space="preserve">
<path d="M-692.31,242.57h10.26v40.12h-10.26V242.57z"/>
<path d="M-662.04,283.55c-4.24,0-7.76-0.9-10.55-2.69c-2.79-1.8-4.74-4.22-5.85-7.28l8.77-5.1c1.49,3.55,4.13,5.33,7.91,5.33
	c3.13,0,4.7-0.89,4.7-2.67c0-1.17-0.9-2.12-2.71-2.84c-0.76-0.32-2.44-0.85-5.03-1.6c-3.67-1.07-6.57-2.57-8.71-4.5
	c-2.14-1.93-3.21-4.61-3.21-8.05c0-3.71,1.33-6.71,3.98-9c2.66-2.29,5.97-3.44,9.95-3.44c3.36,0,6.34,0.78,8.94,2.35
	c2.6,1.57,4.59,3.84,5.96,6.82l-8.6,5.04c-1.26-2.98-3.34-4.47-6.25-4.47c-1.22,0-2.15,0.25-2.78,0.75c-0.63,0.5-0.95,1.13-0.95,1.9
	c0,0.88,0.47,1.63,1.4,2.25c0.93,0.62,2.76,1.33,5.46,2.13c1.91,0.69,3.47,1.25,4.67,1.68c1.21,0.44,2.52,1.12,3.93,2.05
	c1.42,0.93,2.47,2.14,3.16,3.6c0.69,1.47,1.03,3.19,1.03,5.18c0,3.94-1.4,7.01-4.18,9.23
	C-653.77,282.45-657.46,283.55-662.04,283.55z"/>
<path d="M-472.47,84.06c-2.22-4.73-5.61-8.59-10.16-11.6c-4.56-3.01-8.78-5.21-12.67-6.61c-3.89-1.4-8.9-3.2-15.05-5.42
	c-8.72-2.59-14.58-4.88-17.59-6.87c-3.01-1.98-4.51-4.39-4.51-7.24c0-2.47,1.02-4.51,3.05-6.12c2.03-1.61,5.01-2.41,8.95-2.41
	c9.35,0,16.06,4.8,20.12,14.4l27.69-16.24c-4.43-9.6-10.83-16.92-19.2-21.96c-8.37-5.04-17.96-7.57-28.79-7.57
	c-12.8,0-23.47,3.69-32.02,11.07c-8.55,7.38-12.83,17.04-12.83,28.98c0,11.07,3.45,19.72,10.34,25.93
	c6.89,6.21,16.24,11.04,28.05,14.49c8.34,2.41,13.74,4.12,16.19,5.14c5.82,2.32,8.01,5,8.01,8.78c0,5.73-4.35,8.81-14.44,8.81
	h-54.55h-74.05v31.53h129.2v-0.02c14.07-0.24,25.44-3.79,34.12-10.68c8.98-7.13,13.47-17.04,13.47-29.71
	C-469.14,94.35-470.25,88.79-472.47,84.06z"/>
<path d="M-269.72-22.47c-0.68-1.46-1.73-2.65-3.13-3.58c-1.41-0.93-2.71-1.61-3.9-2.04c-1.2-0.43-2.74-0.99-4.64-1.67
	c-2.69-0.8-4.5-1.51-5.42-2.12c-0.93-0.61-1.39-1.35-1.39-2.23c0-0.76,0.31-1.39,0.94-1.89c0.63-0.5,1.55-0.74,2.76-0.74
	c2.88,0,4.95,1.48,6.2,4.44l8.53-5.01c-1.37-2.96-3.34-5.21-5.92-6.77c-2.58-1.55-5.54-2.33-8.87-2.33c-3.95,0-7.24,1.14-9.87,3.41
	c-2.64,2.28-3.95,5.25-3.95,8.93c0,3.41,1.06,6.08,3.19,7.99c2.12,1.92,5.01,3.4,8.65,4.47c2.57,0.74,4.23,1.27,4.99,1.58
	c1.79,0.71,2.47,1.54,2.47,2.71c0,1.77-1.34,2.72-4.45,2.72h-16.81h-22.83v9.72h39.82v-0.01c4.34-0.07,7.84-1.17,10.52-3.29
	c2.77-2.2,4.15-5.25,4.15-9.16C-268.69-19.3-269.03-21.02-269.72-22.47z"/>
<path d="M-602.31,254.09h9.52v28.66h-9.52v-2.87c-1.72,2.45-4.38,3.67-7.97,3.67c-3.09,0-5.63-1.06-7.59-3.18
	c-1.97-2.12-2.95-5.17-2.95-9.14v-17.14h9.52v15.94c0,1.49,0.39,2.62,1.17,3.38c0.78,0.76,1.82,1.15,3.12,1.15
	c1.49,0,2.65-0.45,3.47-1.35c0.82-0.9,1.23-2.19,1.23-3.87V254.09z"/>
<path d="M-544.05,250.05c-1.09,1.09-2.38,1.63-3.87,1.63s-2.78-0.54-3.87-1.63c-1.09-1.09-1.63-2.38-1.63-3.87
	c0-1.49,0.54-2.77,1.63-3.84c1.09-1.07,2.38-1.6,3.87-1.6s2.78,0.54,3.87,1.6c1.09,1.07,1.63,2.35,1.63,3.84
	C-542.42,247.67-542.96,248.96-544.05,250.05z M-552.68,282.69v-28.66h9.52v28.66H-552.68z"/>
<path d="M-519.59,254.09h9.52v28.66h-9.52v-2.87c-1.72,2.45-4.38,3.67-7.97,3.67c-3.09,0-5.63-1.06-7.59-3.18
	c-1.97-2.12-2.95-5.17-2.95-9.14v-17.14h9.52v15.94c0,1.49,0.39,2.62,1.17,3.38c0.78,0.76,1.82,1.15,3.12,1.15
	c1.49,0,2.65-0.45,3.47-1.35c0.82-0.9,1.23-2.19,1.23-3.87V254.09z"/>
<path d="M-471.68,253.28c3.33,0,5.95,1.06,7.88,3.18c1.93,2.12,2.89,5.04,2.89,8.74v17.54h-9.57v-16.45c0-2.67-1.18-4.01-3.55-4.01
	c-1.3,0-2.28,0.43-2.95,1.29c-0.67,0.86-1,2.03-1,3.53v15.65h-9.52v-16.45c0-2.67-1.2-4.01-3.61-4.01c-1.3,0-2.28,0.43-2.95,1.29
	c-0.67,0.86-1,2.03-1,3.53v15.65h-9.52v-28.66h9.52v2.69c1.76-2.33,4.34-3.5,7.74-3.5c3.29,0,5.73,1.22,7.34,3.67
	C-478,254.5-475.23,253.28-471.68,253.28z"/>
<path d="M-641.69,242.02h10.15v10.95h6.19v7.74h-6.19v9.34c0,2.75,0.69,4.07,2.29,4.07c1.32,0,2.52-0.92,2.52-0.92l2.52,8.2
	c0,0-3.27,1.83-7.45,1.83c-8.08,0-10.03-6.02-10.03-11.24v-11.29h-4.24v-7.74h4.24V242.02z"/>
<path d="M-575.64,254.24c3.73,0,6.8,1.24,9.07,3.46v-21.38h9.56v46.43h-9.45v-3.13h-0.11c-2.05,2.27-5.29,3.94-9.07,3.94
	c-8.1,0-13.77-6.53-13.77-14.63C-589.41,260.83-583.74,254.24-575.64,254.24z M-572.78,275.4c3.72,0,6.42-2.7,6.42-6.48
	c0-3.83-2.86-6.53-6.42-6.53c-3.62,0-6.48,2.7-6.48,6.53C-579.26,272.7-576.67,275.4-572.78,275.4z"/>
<path d="M-311.69-45.7h10.26v40.12h-10.26V-45.7z"/>
<path d="M-221.68-34.18h9.52v28.66h-9.52v-2.87c-1.72,2.45-4.38,3.67-7.97,3.67c-3.09,0-5.63-1.06-7.59-3.18
	c-1.97-2.12-2.95-5.17-2.95-9.14v-17.14h9.52v15.94c0,1.49,0.39,2.62,1.17,3.38c0.78,0.76,1.82,1.15,3.12,1.15
	c1.49,0,2.65-0.45,3.47-1.35c0.82-0.9,1.23-2.19,1.23-3.87V-34.18z"/>
<path d="M-163.43-38.22c-1.09,1.09-2.38,1.63-3.87,1.63s-2.78-0.54-3.87-1.63c-1.09-1.09-1.63-2.38-1.63-3.87
	c0-1.49,0.54-2.77,1.63-3.84c1.09-1.07,2.38-1.6,3.87-1.6s2.78,0.54,3.87,1.6c1.09,1.07,1.63,2.35,1.63,3.84
	C-161.79-40.6-162.34-39.31-163.43-38.22z M-172.05-5.58v-28.66h9.52v28.66H-172.05z"/>
<path d="M-138.97-34.18h9.52v28.66h-9.52v-2.87c-1.72,2.45-4.38,3.67-7.97,3.67c-3.09,0-5.63-1.06-7.59-3.18
	c-1.97-2.12-2.95-5.17-2.95-9.14v-17.14h9.52v15.94c0,1.49,0.39,2.62,1.17,3.38c0.78,0.76,1.82,1.15,3.12,1.15
	c1.49,0,2.65-0.45,3.47-1.35c0.82-0.9,1.23-2.19,1.23-3.87V-34.18z"/>
<path d="M-91.05-34.99c3.33,0,5.95,1.06,7.88,3.18c1.93,2.12,2.89,5.04,2.89,8.74v17.54h-9.57v-16.45c0-2.67-1.18-4.01-3.55-4.01
	c-1.3,0-2.28,0.43-2.95,1.29c-0.67,0.86-1,2.03-1,3.53v15.65h-9.52v-16.45c0-2.67-1.2-4.01-3.61-4.01c-1.3,0-2.28,0.43-2.95,1.29
	c-0.67,0.86-1,2.03-1,3.53v15.65h-9.52v-28.66h9.52v2.69c1.76-2.33,4.34-3.5,7.74-3.5c3.29,0,5.73,1.22,7.34,3.67
	C-97.38-33.77-94.6-34.99-91.05-34.99z"/>
<path d="M-261.07-46.25h10.15v10.95h6.19v7.74h-6.19v9.34c0,2.75,0.69,4.07,2.29,4.07c1.32,0,2.52-0.92,2.52-0.92l2.52,8.2
	c0,0-3.27,1.83-7.45,1.83c-8.08,0-10.03-6.02-10.03-11.24v-11.29h-4.24v-7.74h4.24V-46.25z"/>
<path d="M-195.02-34.04c3.73,0,6.8,1.24,9.07,3.46v-21.38h9.56v46.43h-9.45v-3.13h-0.11c-2.05,2.27-5.29,3.94-9.07,3.94
	c-8.1,0-13.77-6.53-13.77-14.63C-208.79-27.45-203.12-34.04-195.02-34.04z M-192.16-12.87c3.72,0,6.42-2.7,6.42-6.48
	c0-3.83-2.86-6.53-6.42-6.53c-3.62,0-6.48,2.7-6.48,6.53C-198.64-15.57-196.05-12.87-192.16-12.87z"/>
<path d="M-269.72,36.82c-0.68-1.46-1.73-2.65-3.13-3.58c-1.41-0.93-2.71-1.61-3.9-2.04c-1.2-0.43-2.74-0.99-4.64-1.67
	c-2.69-0.8-4.5-1.51-5.42-2.12c-0.93-0.61-1.39-1.35-1.39-2.23c0-0.76,0.31-1.39,0.94-1.89c0.63-0.5,1.55-0.74,2.76-0.74
	c2.88,0,4.95,1.48,6.2,4.44l8.53-5.01c-1.37-2.96-3.34-5.21-5.92-6.77c-2.58-1.55-5.54-2.33-8.87-2.33c-3.95,0-7.24,1.14-9.87,3.41
	c-2.64,2.28-3.95,5.25-3.95,8.93c0,3.41,1.06,6.08,3.19,7.99c2.12,1.92,5.01,3.4,8.65,4.47c2.57,0.74,4.23,1.27,4.99,1.58
	c1.79,0.71,2.47,1.54,2.47,2.71c0,1.77-1.34,2.72-4.45,2.72h-16.81h-11.33v9.72h28.32v-0.01c4.34-0.07,7.84-1.17,10.52-3.29
	c2.77-2.2,4.15-5.25,4.15-9.16C-268.69,39.99-269.03,38.28-269.72,36.82z"/>
<path d="M-311.69,13.59h10.26v40.12h-10.26V13.59z"/>
<path d="M-221.68,25.11h9.52v28.66h-9.52V50.9c-1.72,2.45-4.38,3.67-7.97,3.67c-3.09,0-5.63-1.06-7.59-3.18
	c-1.97-2.12-2.95-5.17-2.95-9.14V25.11h9.52v15.94c0,1.49,0.39,2.62,1.17,3.38c0.78,0.76,1.82,1.15,3.12,1.15
	c1.49,0,2.65-0.45,3.47-1.35c0.82-0.9,1.23-2.19,1.23-3.87V25.11z"/>
<path d="M-163.43,21.07c-1.09,1.09-2.38,1.63-3.87,1.63s-2.78-0.54-3.87-1.63c-1.09-1.09-1.63-2.38-1.63-3.87
	c0-1.49,0.54-2.77,1.63-3.84c1.09-1.07,2.38-1.6,3.87-1.6s2.78,0.54,3.87,1.6c1.09,1.07,1.63,2.35,1.63,3.84
	C-161.79,18.69-162.34,19.98-163.43,21.07z M-172.05,53.71V25.05h9.52v28.66H-172.05z"/>
<path d="M-138.97,25.11h9.52v28.66h-9.52V50.9c-1.72,2.45-4.38,3.67-7.97,3.67c-3.09,0-5.63-1.06-7.59-3.18
	c-1.97-2.12-2.95-5.17-2.95-9.14V25.11h9.52v15.94c0,1.49,0.39,2.62,1.17,3.38c0.78,0.76,1.82,1.15,3.12,1.15
	c1.49,0,2.65-0.45,3.47-1.35c0.82-0.9,1.23-2.19,1.23-3.87V25.11z"/>
<path d="M-91.05,24.3c3.33,0,5.95,1.06,7.88,3.18c1.93,2.12,2.89,5.04,2.89,8.74v17.54h-9.57V37.31c0-2.67-1.18-4.01-3.55-4.01
	c-1.3,0-2.28,0.43-2.95,1.29c-0.67,0.86-1,2.03-1,3.53v15.65h-9.52V37.31c0-2.67-1.2-4.01-3.61-4.01c-1.3,0-2.28,0.43-2.95,1.29
	c-0.67,0.86-1,2.03-1,3.53v15.65h-9.52V25.1h9.52v2.69c1.76-2.33,4.34-3.5,7.74-3.5c3.29,0,5.73,1.22,7.34,3.67
	C-97.38,25.52-94.6,24.3-91.05,24.3z"/>
<path d="M-261.07,13.04h10.15v10.95h6.19v7.74h-6.19v9.34c0,2.75,0.69,4.07,2.29,4.07c1.32,0,2.52-0.92,2.52-0.92l2.52,8.2
	c0,0-3.27,1.83-7.45,1.83c-8.08,0-10.03-6.02-10.03-11.24V31.73h-4.24v-7.74h4.24V13.04z"/>
<path d="M-195.02,25.26c3.73,0,6.8,1.24,9.07,3.46V7.33h9.56v46.43h-9.45v-3.13h-0.11c-2.05,2.27-5.29,3.94-9.07,3.94
	c-8.1,0-13.77-6.53-13.77-14.63C-208.79,31.85-203.12,25.26-195.02,25.26z M-192.16,46.42c3.72,0,6.42-2.7,6.42-6.48
	c0-3.83-2.86-6.53-6.42-6.53c-3.62,0-6.48,2.7-6.48,6.53C-198.64,43.72-196.05,46.42-192.16,46.42z"/>
<rect x="-323.19" y="13.59" width="10.26" height="10.26"/>
<path d="M-269.72,96.12c-0.68-1.46-1.73-2.65-3.13-3.58c-1.41-0.93-2.71-1.61-3.9-2.04c-1.2-0.43-2.74-0.99-4.64-1.67
	c-2.69-0.8-4.5-1.51-5.42-2.12c-0.93-0.61-1.39-1.35-1.39-2.23c0-0.76,0.31-1.39,0.94-1.89c0.63-0.5,1.55-0.74,2.76-0.74
	c2.88,0,4.95,1.48,6.2,4.44l8.53-5.01c-1.37-2.96-3.34-5.21-5.92-6.77c-2.58-1.55-5.54-2.33-8.87-2.33c-3.95,0-7.24,1.14-9.87,3.41
	c-2.64,2.28-3.95,5.25-3.95,8.93c0,3.41,1.06,6.08,3.19,7.99c2.12,1.92,5.01,3.4,8.65,4.47c2.57,0.74,4.23,1.27,4.99,1.58
	c1.79,0.71,2.47,1.54,2.47,2.71c0,1.77-1.34,2.72-4.45,2.72h-16.81h-11.33v9.72h28.32v-0.01c4.34-0.07,7.84-1.17,10.52-3.29
	c2.77-2.2,4.15-5.25,4.15-9.16C-268.69,99.28-269.03,97.57-269.72,96.12z"/>
<path d="M-311.69,72.88h10.26v40.12h-10.26V72.88z"/>
<path d="M-221.68,84.4h9.52v28.66h-9.52v-2.87c-1.72,2.45-4.38,3.67-7.97,3.67c-3.09,0-5.63-1.06-7.59-3.18
	c-1.97-2.12-2.95-5.17-2.95-9.14V84.4h9.52v15.94c0,1.49,0.39,2.62,1.17,3.38c0.78,0.76,1.82,1.15,3.12,1.15
	c1.49,0,2.65-0.45,3.47-1.35c0.82-0.9,1.23-2.19,1.23-3.87V84.4z"/>
<path d="M-163.43,80.36c-1.09,1.09-2.38,1.63-3.87,1.63s-2.78-0.54-3.87-1.63c-1.09-1.09-1.63-2.38-1.63-3.87
	c0-1.49,0.54-2.77,1.63-3.84c1.09-1.07,2.38-1.6,3.87-1.6s2.78,0.54,3.87,1.6c1.09,1.07,1.63,2.35,1.63,3.84
	C-161.79,77.99-162.34,79.27-163.43,80.36z M-172.05,113.01V84.35h9.52v28.66H-172.05z"/>
<path d="M-138.97,84.4h9.52v28.66h-9.52v-2.87c-1.72,2.45-4.38,3.67-7.97,3.67c-3.09,0-5.63-1.06-7.59-3.18
	c-1.97-2.12-2.95-5.17-2.95-9.14V84.4h9.52v15.94c0,1.49,0.39,2.62,1.17,3.38c0.78,0.76,1.82,1.15,3.12,1.15
	c1.49,0,2.65-0.45,3.47-1.35c0.82-0.9,1.23-2.19,1.23-3.87V84.4z"/>
<path d="M-91.05,83.59c3.33,0,5.95,1.06,7.88,3.18c1.93,2.12,2.89,5.04,2.89,8.74v17.54h-9.57V96.61c0-2.67-1.18-4.01-3.55-4.01
	c-1.3,0-2.28,0.43-2.95,1.29c-0.67,0.86-1,2.03-1,3.53v15.65h-9.52V96.61c0-2.67-1.2-4.01-3.61-4.01c-1.3,0-2.28,0.43-2.95,1.29
	c-0.67,0.86-1,2.03-1,3.53v15.65h-9.52V84.4h9.52v2.69c1.76-2.33,4.34-3.5,7.74-3.5c3.29,0,5.73,1.22,7.34,3.67
	C-97.38,84.82-94.6,83.59-91.05,83.59z"/>
<path d="M-261.07,72.34h10.15v10.95h6.19v7.74h-6.19v9.34c0,2.75,0.69,4.07,2.29,4.07c1.32,0,2.52-0.92,2.52-0.92l2.52,8.2
	c0,0-3.27,1.83-7.45,1.83c-8.08,0-10.03-6.02-10.03-11.24V91.03h-4.24v-7.74h4.24V72.34z"/>
<path d="M-195.02,84.55c3.73,0,6.8,1.24,9.07,3.46V66.63h9.56v46.43h-9.45v-3.13h-0.11c-2.05,2.27-5.29,3.94-9.07,3.94
	c-8.1,0-13.77-6.53-13.77-14.63C-208.79,91.14-203.12,84.55-195.02,84.55z M-192.16,105.72c3.72,0,6.42-2.7,6.42-6.48
	c0-3.83-2.86-6.53-6.42-6.53c-3.62,0-6.48,2.7-6.48,6.53C-198.64,103.02-196.05,105.72-192.16,105.72z"/>
<rect x="-323.19" y="72.88" width="14.1" height="10.26"/>
<rect x="-323.19" y="103.45" width="12.95" height="10.26"/>
<path d="M-221.68,143.7h9.52v28.66h-9.52v-2.87c-1.72,2.45-4.38,3.67-7.97,3.67c-3.09,0-5.63-1.06-7.59-3.18
	c-1.97-2.12-2.95-5.17-2.95-9.14V143.7h9.52v15.94c0,1.49,0.39,2.62,1.17,3.38c0.78,0.76,1.82,1.15,3.12,1.15
	c1.49,0,2.65-0.45,3.47-1.35c0.82-0.9,1.23-2.19,1.23-3.87V143.7z"/>
<path d="M-163.43,139.66c-1.09,1.09-2.38,1.63-3.87,1.63s-2.78-0.54-3.87-1.63c-1.09-1.09-1.63-2.38-1.63-3.87
	c0-1.49,0.54-2.77,1.63-3.84c1.09-1.07,2.38-1.6,3.87-1.6s2.78,0.54,3.87,1.6c1.09,1.07,1.63,2.35,1.63,3.84
	C-161.79,137.28-162.34,138.57-163.43,139.66z M-172.05,172.3v-28.66h9.52v28.66H-172.05z"/>
<path d="M-138.97,143.7h9.52v28.66h-9.52v-2.87c-1.72,2.45-4.38,3.67-7.97,3.67c-3.09,0-5.63-1.06-7.59-3.18
	c-1.97-2.12-2.95-5.17-2.95-9.14V143.7h9.52v15.94c0,1.49,0.39,2.62,1.17,3.38c0.78,0.76,1.82,1.15,3.12,1.15
	c1.49,0,2.65-0.45,3.47-1.35c0.82-0.9,1.23-2.19,1.23-3.87V143.7z"/>
<path d="M-91.05,142.89c3.33,0,5.95,1.06,7.88,3.18c1.93,2.12,2.89,5.04,2.89,8.74v17.54h-9.57V155.9c0-2.67-1.18-4.01-3.55-4.01
	c-1.3,0-2.28,0.43-2.95,1.29c-0.67,0.86-1,2.03-1,3.53v15.65h-9.52V155.9c0-2.67-1.2-4.01-3.61-4.01c-1.3,0-2.28,0.43-2.95,1.29
	c-0.67,0.86-1,2.03-1,3.53v15.65h-9.52v-28.66h9.52v2.69c1.76-2.33,4.34-3.5,7.74-3.5c3.29,0,5.73,1.22,7.34,3.67
	C-97.38,144.11-94.6,142.89-91.05,142.89z"/>
<path d="M-261.07,131.63h10.15v10.95h6.19v7.74h-6.19v9.34c0,2.75,0.69,4.07,2.29,4.07c1.32,0,2.52-0.92,2.52-0.92l2.52,8.2
	c0,0-3.27,1.83-7.45,1.83c-8.08,0-10.03-6.02-10.03-11.24v-11.29h-4.24v-7.74h4.24V131.63z"/>
<path d="M-195.02,143.85c3.73,0,6.8,1.24,9.07,3.46v-21.38h9.56v46.43h-9.45v-3.13h-0.11c-2.05,2.27-5.29,3.94-9.07,3.94
	c-8.1,0-13.77-6.53-13.77-14.63C-208.79,150.43-203.12,143.85-195.02,143.85z M-192.16,165.01c3.72,0,6.42-2.7,6.42-6.48
	c0-3.83-2.86-6.53-6.42-6.53c-3.62,0-6.48,2.7-6.48,6.53C-198.64,162.31-196.05,165.01-192.16,165.01z"/>
<path d="M-269.72,155.41c-0.68-1.46-1.73-2.65-3.13-3.58c-1.41-0.93-2.71-1.61-3.9-2.04c-1.2-0.43-2.74-0.99-4.64-1.67
	c-2.69-0.8-4.5-1.51-5.42-2.12c-0.93-0.61-1.39-1.35-1.39-2.23c0-0.76,0.31-1.39,0.94-1.89c0.63-0.5,1.55-0.74,2.76-0.74
	c2.88,0,5.02,1.11,6.9,3.74l7.84-4.31c-1.37-2.96-3.34-5.21-5.92-6.77c-2.34-1.41-4.95-1.6-7.9-1.62l0,0h-17.84h-10.26h-11.5v10.26
	h11.5v20.31h-11.5v10.26h11.5h1.45h26.87V173c4.34-0.07,7.84-1.17,10.52-3.29c2.77-2.2,4.15-5.25,4.15-9.16
	C-268.69,158.58-269.03,156.87-269.72,155.41z M-283.55,163.29h-16.81h-1.07v-20.85h3.76c-0.03,0.43-0.04,0.88-0.04,1.36
	c0,3.41,0.61,5.79,2.74,7.71c2.12,1.92,4.77,3.72,8.42,4.78c2.57,0.74,4.23,1.27,4.99,1.58c1.79,0.71,2.47,1.54,2.47,2.71
	C-279.1,162.34-280.44,163.29-283.55,163.29z"/>
<path d="M105.29,21.44h9.52V50.1h-9.52v-2.87c-1.72,2.45-4.38,3.67-7.97,3.67c-3.09,0-5.63-1.06-7.59-3.18
	c-1.97-2.12-2.95-5.17-2.95-9.14V21.44h9.52v15.94c0,1.49,0.39,2.62,1.17,3.38c0.78,0.76,1.82,1.15,3.12,1.15
	c1.49,0,2.65-0.45,3.47-1.35c0.82-0.9,1.23-2.19,1.23-3.87V21.44z"/>
<path d="M163.55,17.4c-1.09,1.09-2.38,1.63-3.87,1.63s-2.78-0.54-3.87-1.63c-1.09-1.09-1.63-2.38-1.63-3.87
	c0-1.49,0.54-2.77,1.63-3.84c1.09-1.07,2.38-1.6,3.87-1.6s2.78,0.54,3.87,1.6c1.09,1.07,1.63,2.35,1.63,3.84
	C165.18,15.02,164.64,16.31,163.55,17.4z M154.92,50.05V21.39h9.52v28.66H154.92z"/>
<path d="M188.01,21.44h9.52V50.1h-9.52v-2.87c-1.72,2.45-4.38,3.67-7.97,3.67c-3.09,0-5.63-1.06-7.59-3.18
	c-1.97-2.12-2.95-5.17-2.95-9.14V21.44h9.52v15.94c0,1.49,0.39,2.62,1.17,3.38c0.78,0.76,1.82,1.15,3.12,1.15
	c1.49,0,2.65-0.45,3.47-1.35c0.82-0.9,1.23-2.19,1.23-3.87V21.44z"/>
<path d="M235.93,20.63c3.33,0,5.95,1.06,7.88,3.18c1.93,2.12,2.89,5.04,2.89,8.74v17.54h-9.57V33.64c0-2.67-1.18-4.01-3.55-4.01
	c-1.3,0-2.28,0.43-2.95,1.29c-0.67,0.86-1,2.03-1,3.53v15.65h-9.52V33.64c0-2.67-1.2-4.01-3.61-4.01c-1.3,0-2.28,0.43-2.95,1.29
	c-0.67,0.86-1,2.03-1,3.53v15.65h-9.52V21.43h9.52v2.69c1.76-2.33,4.34-3.5,7.74-3.5c3.29,0,5.73,1.22,7.34,3.67
	C229.6,21.85,232.37,20.63,235.93,20.63z"/>
<path d="M65.91,9.38h10.15v10.95h6.19v7.74h-6.19v9.34c0,2.75,0.69,4.07,2.29,4.07c1.32,0,2.52-0.92,2.52-0.92l2.52,8.2
	c0,0-3.27,1.83-7.45,1.83c-8.08,0-10.03-6.02-10.03-11.24V28.06h-4.24v-7.74h4.24V9.38z"/>
<path d="M131.96,21.59c3.73,0,6.8,1.24,9.07,3.46V3.67h9.56V50.1h-9.45v-3.13h-0.11c-2.05,2.27-5.29,3.94-9.07,3.94
	c-8.1,0-13.77-6.53-13.77-14.63C118.19,28.18,123.86,21.59,131.96,21.59z M134.82,42.75c3.72,0,6.42-2.7,6.42-6.48
	c0-3.83-2.86-6.53-6.42-6.53c-3.62,0-6.48,2.7-6.48,6.53C128.34,40.06,130.93,42.75,134.82,42.75z"/>
<path d="M57.26,33.15c-0.68-1.46-1.73-2.65-3.13-3.58c-1.41-0.93-2.71-1.61-3.9-2.04c-1.2-0.43-2.74-0.99-4.64-1.67
	c-2.69-0.8-4.5-1.51-5.42-2.12c-0.93-0.61-1.39-1.35-1.39-2.23c0-0.76,0.31-1.39,0.94-1.89c0.63-0.5,1.55-0.74,2.76-0.74
	c2.88,0,5.02,1.11,6.9,3.74l7.84-4.31c-1.37-2.96-3.34-5.21-5.92-6.77c-2.34-1.41-4.95-1.6-7.9-1.62l0,0H25.55H15.29H3.79v10.26
	h11.5v20.31H3.79v10.26h11.5h1.45h26.87v-0.01c4.34-0.07,7.84-1.17,10.52-3.29c2.77-2.2,4.15-5.25,4.15-9.16
	C58.29,36.32,57.94,34.61,57.26,33.15z M43.43,41.03H26.62h-1.07V20.18h3.76c-0.03,0.43-0.04,0.88-0.04,1.36
	c0,3.41,0.61,5.79,2.74,7.71c2.12,1.92,4.77,3.72,8.42,4.78c2.57,0.74,4.23,1.27,4.99,1.58c1.79,0.71,2.47,1.54,2.47,2.71
	C47.88,40.08,46.54,41.03,43.43,41.03z"/>
<path d="M-269.72,224.97c-0.68-1.46-1.73-2.65-3.13-3.58c-1.41-0.93-2.71-1.61-3.9-2.04c-1.2-0.43-2.74-0.99-4.64-1.67
	c-2.69-0.8-4.5-1.51-5.42-2.12c-0.93-0.61-1.39-1.35-1.39-2.23c0-0.76,0.31-1.39,0.94-1.89c0.63-0.5,1.55-0.74,2.76-0.74
	c2.88,0,5.02,1.11,6.9,3.74l7.84-4.31c-1.37-2.96-3.34-5.21-5.92-6.77c-2.34-1.41-4.95-1.6-7.9-1.62l0,0h-17.84h-10.26h-11.5V212
	h11.5v20.31h-11.5v10.26h11.5h1.45h26.87v-0.01c4.34-0.07,7.84-1.17,10.52-3.29c2.77-2.2,4.15-5.25,4.15-9.16
	C-268.69,228.14-269.03,226.43-269.72,224.97z M-283.55,232.85h-16.81h-1.07V212h3.76c-0.03,0.43-0.04,0.88-0.04,1.36
	c0,3.41,0.61,5.79,2.74,7.71c2.12,1.92,4.77,3.72,8.42,4.78c2.57,0.74,4.23,1.27,4.99,1.58c1.79,0.71,2.47,1.54,2.47,2.71
	C-279.1,231.9-280.44,232.85-283.55,232.85z"/>
<path d="M61.16,115.83c-0.68-1.46-1.73-2.65-3.13-3.58c-1.41-0.93-2.71-1.61-3.9-2.04c-1.2-0.43-2.74-0.99-4.64-1.67
	c-2.69-0.8-4.5-1.51-5.42-2.12c-0.93-0.61-1.39-1.35-1.39-2.23c0-0.76,0.31-1.39,0.94-1.89c0.63-0.5,1.55-0.74,2.76-0.74
	c2.88,0,5.02,1.11,6.9,3.74l7.84-4.31c-1.37-2.96-3.34-5.21-5.92-6.77c-2.34-1.41-4.95-1.6-7.9-1.62l0,0H29.45H19.19H7.69v10.26
	h11.5v20.31H7.69v10.26h11.5h1.45h26.87v-0.01c4.34-0.07,7.84-1.17,10.52-3.29c2.77-2.2,4.15-5.25,4.15-9.16
	C62.19,119,61.85,117.28,61.16,115.83z M47.33,123.7H30.52h-1.07v-20.85h3.76c-0.03,0.43-0.04,0.88-0.04,1.36
	c0,3.41,0.61,5.79,2.74,7.71c2.12,1.92,4.77,3.72,8.42,4.78c2.57,0.74,4.23,1.27,4.99,1.58c1.79,0.71,2.47,1.54,2.47,2.71
	C51.78,122.75,50.44,123.7,47.33,123.7z"/>
</svg>
