<?xml version="1.0" encoding="utf-8"?>
<!-- Generator: Adobe Illustrator 27.1.1, SVG Export Plug-In . SVG Version: 6.00 Build 0)  -->
<svg version="1.1" id="Layer_1" xmlns="http://www.w3.org/2000/svg" xmlns:xlink="http://www.w3.org/1999/xlink" x="0px" y="0px"
	 viewBox="0 0 74.35 70.52" style="enable-background:new 0 0 74.35 70.52;" xml:space="preserve">
<path d="M-690.07,166.51h10.26v40.12h-10.26V166.51z"/>
<path d="M-659.81,207.49c-4.24,0-7.76-0.9-10.55-2.69c-2.79-1.8-4.74-4.22-5.85-7.28l8.77-5.1c1.49,3.55,4.13,5.33,7.91,5.33
	c3.13,0,4.7-0.89,4.7-2.67c0-1.17-0.9-2.12-2.71-2.84c-0.76-0.32-2.44-0.85-5.03-1.6c-3.67-1.07-6.57-2.57-8.71-4.5
	c-2.14-1.93-3.21-4.61-3.21-8.05c0-3.71,1.33-6.71,3.98-9c2.66-2.29,5.97-3.44,9.95-3.44c3.36,0,6.34,0.78,8.94,2.35
	c2.6,1.57,4.59,3.84,5.96,6.82l-8.6,5.04c-1.26-2.98-3.34-4.47-6.25-4.47c-1.22,0-2.15,0.25-2.78,0.75c-0.63,0.5-0.95,1.13-0.95,1.9
	c0,0.88,0.47,1.63,1.4,2.25c0.93,0.62,2.76,1.33,5.46,2.13c1.91,0.69,3.47,1.25,4.67,1.68c1.21,0.44,2.52,1.12,3.93,2.05
	c1.42,0.93,2.47,2.14,3.16,3.6c0.69,1.47,1.03,3.19,1.03,5.18c0,3.94-1.4,7.01-4.18,9.23
	C-651.54,206.38-655.22,207.49-659.81,207.49z"/>
<path d="M-470.24,8c-2.22-4.73-5.61-8.59-10.16-11.6c-4.56-3.01-8.78-5.21-12.67-6.61c-3.89-1.4-8.9-3.2-15.05-5.42
	c-8.72-2.59-14.58-4.88-17.59-6.87c-3.01-1.98-4.51-4.39-4.51-7.24c0-2.47,1.02-4.51,3.05-6.12c2.03-1.61,5.01-2.41,8.95-2.41
	c9.35,0,16.06,4.8,20.12,14.4l27.69-16.24c-4.43-9.6-10.83-16.92-19.2-21.96c-8.37-5.04-17.96-7.57-28.79-7.57
	c-12.8,0-23.47,3.69-32.02,11.07c-8.55,7.38-12.83,17.04-12.83,28.98c0,11.07,3.45,19.72,10.34,25.93
	c6.89,6.21,16.24,11.04,28.05,14.49c8.34,2.41,13.74,4.12,16.19,5.14c5.82,2.32,8.01,5,8.01,8.78c0,5.73-4.35,8.81-14.44,8.81
	h-54.55h-74.05v31.53h129.2v-0.02c14.07-0.24,25.44-3.79,34.12-10.68c8.98-7.13,13.47-17.04,13.47-29.71
	C-466.91,18.28-468.02,12.73-470.24,8z"/>
<path d="M-267.48-98.54c-0.68-1.46-1.73-2.65-3.13-3.58c-1.41-0.93-2.71-1.61-3.9-2.04c-1.2-0.43-2.74-0.99-4.64-1.67
	c-2.69-0.8-4.5-1.51-5.42-2.12c-0.93-0.61-1.39-1.35-1.39-2.23c0-0.76,0.31-1.39,0.94-1.89c0.63-0.5,1.55-0.74,2.76-0.74
	c2.88,0,4.95,1.48,6.2,4.44l8.53-5.01c-1.37-2.96-3.34-5.21-5.92-6.77c-2.58-1.55-5.54-2.33-8.87-2.33c-3.95,0-7.24,1.14-9.87,3.41
	c-2.64,2.28-3.95,5.25-3.95,8.93c0,3.41,1.06,6.08,3.19,7.99c2.12,1.92,5.01,3.4,8.65,4.47c2.57,0.74,4.23,1.27,4.99,1.58
	c1.79,0.71,2.47,1.54,2.47,2.71c0,1.77-1.34,2.72-4.45,2.72h-16.81h-22.83v9.72h39.82v-0.01c4.34-0.07,7.84-1.17,10.52-3.29
	c2.77-2.2,4.15-5.25,4.15-9.16C-266.46-95.37-266.8-97.08-267.48-98.54z"/>
<path d="M-600.07,178.03h9.52v28.66h-9.52v-2.87c-1.72,2.45-4.38,3.67-7.97,3.67c-3.09,0-5.63-1.06-7.59-3.18
	c-1.97-2.12-2.95-5.17-2.95-9.14v-17.14h9.52v15.94c0,1.49,0.39,2.62,1.17,3.38c0.78,0.76,1.82,1.15,3.12,1.15
	c1.49,0,2.65-0.45,3.47-1.35c0.82-0.9,1.23-2.19,1.23-3.87V178.03z"/>
<path d="M-541.82,173.99c-1.09,1.09-2.38,1.63-3.87,1.63s-2.78-0.54-3.87-1.63c-1.09-1.09-1.63-2.38-1.63-3.87
	c0-1.49,0.54-2.77,1.63-3.84c1.09-1.07,2.38-1.6,3.87-1.6s2.78,0.54,3.87,1.6c1.09,1.07,1.63,2.35,1.63,3.84
	C-540.18,171.61-540.73,172.9-541.82,173.99z M-550.44,206.63v-28.66h9.52v28.66H-550.44z"/>
<path d="M-517.36,178.03h9.52v28.66h-9.52v-2.87c-1.72,2.45-4.38,3.67-7.97,3.67c-3.09,0-5.63-1.06-7.59-3.18
	c-1.97-2.12-2.95-5.17-2.95-9.14v-17.14h9.52v15.94c0,1.49,0.39,2.62,1.17,3.38c0.78,0.76,1.82,1.15,3.12,1.15
	c1.49,0,2.65-0.45,3.47-1.35c0.82-0.9,1.23-2.19,1.23-3.87V178.03z"/>
<path d="M-469.44,177.22c3.33,0,5.95,1.06,7.88,3.18c1.93,2.12,2.89,5.04,2.89,8.74v17.54h-9.57v-16.45c0-2.67-1.18-4.01-3.55-4.01
	c-1.3,0-2.28,0.43-2.95,1.29c-0.67,0.86-1,2.03-1,3.53v15.65h-9.52v-16.45c0-2.67-1.2-4.01-3.61-4.01c-1.3,0-2.28,0.43-2.95,1.29
	c-0.67,0.86-1,2.03-1,3.53v15.65h-9.52v-28.66h9.52v2.69c1.76-2.33,4.34-3.5,7.74-3.5c3.29,0,5.73,1.22,7.34,3.67
	C-475.76,178.44-472.99,177.22-469.44,177.22z"/>
<path d="M-639.46,165.96h10.15v10.95h6.19v7.74h-6.19v9.34c0,2.75,0.69,4.07,2.29,4.07c1.32,0,2.52-0.92,2.52-0.92l2.52,8.2
	c0,0-3.27,1.83-7.45,1.83c-8.08,0-10.03-6.02-10.03-11.24v-11.29h-4.24v-7.74h4.24V165.96z"/>
<path d="M-573.41,178.17c3.73,0,6.8,1.24,9.07,3.46v-21.38h9.56v46.43h-9.45v-3.13h-0.11c-2.05,2.27-5.29,3.94-9.07,3.94
	c-8.1,0-13.77-6.53-13.77-14.63C-587.18,184.76-581.51,178.17-573.41,178.17z M-570.55,199.34c3.72,0,6.42-2.7,6.42-6.48
	c0-3.83-2.86-6.53-6.42-6.53c-3.62,0-6.48,2.7-6.48,6.53C-577.03,196.64-574.43,199.34-570.55,199.34z"/>
<path d="M-309.45-121.77h10.26v40.12h-10.26V-121.77z"/>
<path d="M-219.45-110.25h9.52v28.66h-9.52v-2.87c-1.72,2.45-4.38,3.67-7.97,3.67c-3.09,0-5.63-1.06-7.59-3.18
	c-1.97-2.12-2.95-5.17-2.95-9.14v-17.14h9.52v15.94c0,1.49,0.39,2.62,1.17,3.38c0.78,0.76,1.82,1.15,3.12,1.15
	c1.49,0,2.65-0.45,3.47-1.35c0.82-0.9,1.23-2.19,1.23-3.87V-110.25z"/>
<path d="M-161.19-114.29c-1.09,1.09-2.38,1.63-3.87,1.63s-2.78-0.54-3.87-1.63c-1.09-1.09-1.63-2.38-1.63-3.87
	c0-1.49,0.54-2.77,1.63-3.84c1.09-1.07,2.38-1.6,3.87-1.6s2.78,0.54,3.87,1.6c1.09,1.07,1.63,2.35,1.63,3.84
	C-159.56-116.67-160.1-115.38-161.19-114.29z M-169.82-81.64v-28.66h9.52v28.66H-169.82z"/>
<path d="M-136.74-110.25h9.52v28.66h-9.52v-2.87c-1.72,2.45-4.38,3.67-7.97,3.67c-3.09,0-5.63-1.06-7.59-3.18
	c-1.97-2.12-2.95-5.17-2.95-9.14v-17.14h9.52v15.94c0,1.49,0.39,2.62,1.17,3.38c0.78,0.76,1.82,1.15,3.12,1.15
	c1.49,0,2.65-0.45,3.47-1.35c0.82-0.9,1.23-2.19,1.23-3.87V-110.25z"/>
<path d="M-88.82-111.06c3.33,0,5.95,1.06,7.88,3.18c1.93,2.12,2.89,5.04,2.89,8.74v17.54h-9.57v-16.45c0-2.67-1.18-4.01-3.55-4.01
	c-1.3,0-2.28,0.43-2.95,1.29c-0.67,0.86-1,2.03-1,3.53v15.65h-9.52v-16.45c0-2.67-1.2-4.01-3.61-4.01c-1.3,0-2.28,0.43-2.95,1.29
	c-0.67,0.86-1,2.03-1,3.53v15.65h-9.52v-28.66h9.52v2.69c1.76-2.33,4.34-3.5,7.74-3.5c3.29,0,5.73,1.22,7.34,3.67
	C-95.14-109.84-92.37-111.06-88.82-111.06z"/>
<path d="M-258.83-122.32h10.15v10.95h6.19v7.74h-6.19v9.34c0,2.75,0.69,4.07,2.29,4.07c1.32,0,2.52-0.92,2.52-0.92l2.52,8.2
	c0,0-3.27,1.83-7.45,1.83c-8.08,0-10.03-6.02-10.03-11.24v-11.29h-4.24v-7.74h4.24V-122.32z"/>
<path d="M-192.79-110.1c3.73,0,6.8,1.24,9.07,3.46v-21.38h9.56v46.43h-9.45v-3.13h-0.11c-2.05,2.27-5.29,3.94-9.07,3.94
	c-8.1,0-13.77-6.53-13.77-14.63C-206.55-103.51-200.88-110.1-192.79-110.1z M-189.92-88.94c3.72,0,6.42-2.7,6.42-6.48
	c0-3.83-2.86-6.53-6.42-6.53c-3.62,0-6.48,2.7-6.48,6.53C-196.4-91.64-193.81-88.94-189.92-88.94z"/>
<path d="M-267.48-39.24c-0.68-1.46-1.73-2.65-3.13-3.58c-1.41-0.93-2.71-1.61-3.9-2.04c-1.2-0.43-2.74-0.99-4.64-1.67
	c-2.69-0.8-4.5-1.51-5.42-2.12c-0.93-0.61-1.39-1.35-1.39-2.23c0-0.76,0.31-1.39,0.94-1.89c0.63-0.5,1.55-0.74,2.76-0.74
	c2.88,0,4.95,1.48,6.2,4.44l8.53-5.01c-1.37-2.96-3.34-5.21-5.92-6.77c-2.58-1.55-5.54-2.33-8.87-2.33c-3.95,0-7.24,1.14-9.87,3.41
	c-2.64,2.28-3.95,5.25-3.95,8.93c0,3.41,1.06,6.08,3.19,7.99c2.12,1.92,5.01,3.4,8.65,4.47c2.57,0.74,4.23,1.27,4.99,1.58
	c1.79,0.71,2.47,1.54,2.47,2.71c0,1.77-1.34,2.72-4.45,2.72h-16.81h-11.33v9.72h28.32v-0.01c4.34-0.07,7.84-1.17,10.52-3.29
	c2.77-2.2,4.15-5.25,4.15-9.16C-266.46-36.07-266.8-37.79-267.48-39.24z"/>
<path d="M-309.45-62.47h10.26v40.12h-10.26V-62.47z"/>
<path d="M-219.45-50.95h9.52v28.66h-9.52v-2.87c-1.72,2.45-4.38,3.67-7.97,3.67c-3.09,0-5.63-1.06-7.59-3.18
	c-1.97-2.12-2.95-5.17-2.95-9.14v-17.14h9.52v15.94c0,1.49,0.39,2.62,1.17,3.38c0.78,0.76,1.82,1.15,3.12,1.15
	c1.49,0,2.65-0.45,3.47-1.35c0.82-0.9,1.23-2.19,1.23-3.87V-50.95z"/>
<path d="M-161.19-54.99c-1.09,1.09-2.38,1.63-3.87,1.63s-2.78-0.54-3.87-1.63c-1.09-1.09-1.63-2.38-1.63-3.87
	c0-1.49,0.54-2.77,1.63-3.84c1.09-1.07,2.38-1.6,3.87-1.6s2.78,0.54,3.87,1.6c1.09,1.07,1.63,2.35,1.63,3.84
	C-159.56-57.37-160.1-56.08-161.19-54.99z M-169.82-22.35v-28.66h9.52v28.66H-169.82z"/>
<path d="M-136.74-50.95h9.52v28.66h-9.52v-2.87c-1.72,2.45-4.38,3.67-7.97,3.67c-3.09,0-5.63-1.06-7.59-3.18
	c-1.97-2.12-2.95-5.17-2.95-9.14v-17.14h9.52v15.94c0,1.49,0.39,2.62,1.17,3.38c0.78,0.76,1.82,1.15,3.12,1.15
	c1.49,0,2.65-0.45,3.47-1.35c0.82-0.9,1.23-2.19,1.23-3.87V-50.95z"/>
<path d="M-88.82-51.76c3.33,0,5.95,1.06,7.88,3.18c1.93,2.12,2.89,5.04,2.89,8.74v17.54h-9.57v-16.45c0-2.67-1.18-4.01-3.55-4.01
	c-1.3,0-2.28,0.43-2.95,1.29c-0.67,0.86-1,2.03-1,3.53v15.65h-9.52v-16.45c0-2.67-1.2-4.01-3.61-4.01c-1.3,0-2.28,0.43-2.95,1.29
	c-0.67,0.86-1,2.03-1,3.53v15.65h-9.52v-28.66h9.52v2.69c1.76-2.33,4.34-3.5,7.74-3.5c3.29,0,5.73,1.22,7.34,3.67
	C-95.14-50.54-92.37-51.76-88.82-51.76z"/>
<path d="M-258.83-63.02h10.15v10.95h6.19v7.74h-6.19v9.34c0,2.75,0.69,4.07,2.29,4.07c1.32,0,2.52-0.92,2.52-0.92l2.52,8.2
	c0,0-3.27,1.83-7.45,1.83c-8.08,0-10.03-6.02-10.03-11.24v-11.29h-4.24v-7.74h4.24V-63.02z"/>
<path d="M-192.79-50.81c3.73,0,6.8,1.24,9.07,3.46v-21.38h9.56v46.43h-9.45v-3.13h-0.11c-2.05,2.27-5.29,3.94-9.07,3.94
	c-8.1,0-13.77-6.53-13.77-14.63C-206.55-44.22-200.88-50.81-192.79-50.81z M-189.92-29.64c3.72,0,6.42-2.7,6.42-6.48
	c0-3.83-2.86-6.53-6.42-6.53c-3.62,0-6.48,2.7-6.48,6.53C-196.4-32.34-193.81-29.64-189.92-29.64z"/>
<rect x="-320.95" y="-62.47" width="10.26" height="10.26"/>
<path d="M-267.48,20.05c-0.68-1.46-1.73-2.65-3.13-3.58c-1.41-0.93-2.71-1.61-3.9-2.04c-1.2-0.43-2.74-0.99-4.64-1.67
	c-2.69-0.8-4.5-1.51-5.42-2.12c-0.93-0.61-1.39-1.35-1.39-2.23c0-0.76,0.31-1.39,0.94-1.89c0.63-0.5,1.55-0.74,2.76-0.74
	c2.88,0,4.95,1.48,6.2,4.44l8.53-5.01c-1.37-2.96-3.34-5.21-5.92-6.77c-2.58-1.55-5.54-2.33-8.87-2.33c-3.95,0-7.24,1.14-9.87,3.41
	c-2.64,2.28-3.95,5.25-3.95,8.93c0,3.41,1.06,6.08,3.19,7.99c2.12,1.92,5.01,3.4,8.65,4.47c2.57,0.74,4.23,1.27,4.99,1.58
	c1.79,0.71,2.47,1.54,2.47,2.71c0,1.77-1.34,2.72-4.45,2.72h-16.81h-11.33v9.72h28.32v-0.01c4.34-0.07,7.84-1.17,10.52-3.29
	c2.77-2.2,4.15-5.25,4.15-9.16C-266.46,23.22-266.8,21.51-267.48,20.05z"/>
<path d="M-309.45-3.18h10.26v40.12h-10.26V-3.18z"/>
<path d="M-219.45,8.34h9.52V37h-9.52v-2.87c-1.72,2.45-4.38,3.67-7.97,3.67c-3.09,0-5.63-1.06-7.59-3.18
	c-1.97-2.12-2.95-5.17-2.95-9.14V8.34h9.52v15.94c0,1.49,0.39,2.62,1.17,3.38c0.78,0.76,1.82,1.15,3.12,1.15
	c1.49,0,2.65-0.45,3.47-1.35c0.82-0.9,1.23-2.19,1.23-3.87V8.34z"/>
<path d="M-161.19,4.3c-1.09,1.09-2.38,1.63-3.87,1.63s-2.78-0.54-3.87-1.63c-1.09-1.09-1.63-2.38-1.63-3.87
	c0-1.49,0.54-2.77,1.63-3.84c1.09-1.07,2.38-1.6,3.87-1.6s2.78,0.54,3.87,1.6c1.09,1.07,1.63,2.35,1.63,3.84
	C-159.56,1.92-160.1,3.21-161.19,4.3z M-169.82,36.94V8.28h9.52v28.66H-169.82z"/>
<path d="M-136.74,8.34h9.52V37h-9.52v-2.87c-1.72,2.45-4.38,3.67-7.97,3.67c-3.09,0-5.63-1.06-7.59-3.18
	c-1.97-2.12-2.95-5.17-2.95-9.14V8.34h9.52v15.94c0,1.49,0.39,2.62,1.17,3.38c0.78,0.76,1.82,1.15,3.12,1.15
	c1.49,0,2.65-0.45,3.47-1.35c0.82-0.9,1.23-2.19,1.23-3.87V8.34z"/>
<path d="M-88.82,7.53c3.33,0,5.95,1.06,7.88,3.18c1.93,2.12,2.89,5.04,2.89,8.74v17.54h-9.57V20.54c0-2.67-1.18-4.01-3.55-4.01
	c-1.3,0-2.28,0.43-2.95,1.29c-0.67,0.86-1,2.03-1,3.53v15.65h-9.52V20.54c0-2.67-1.2-4.01-3.61-4.01c-1.3,0-2.28,0.43-2.95,1.29
	c-0.67,0.86-1,2.03-1,3.53v15.65h-9.52V8.33h9.52v2.69c1.76-2.33,4.34-3.5,7.74-3.5c3.29,0,5.73,1.22,7.34,3.67
	C-95.14,8.75-92.37,7.53-88.82,7.53z"/>
<path d="M-258.83-3.73h10.15V7.22h6.19v7.74h-6.19v9.34c0,2.75,0.69,4.07,2.29,4.07c1.32,0,2.52-0.92,2.52-0.92l2.52,8.2
	c0,0-3.27,1.83-7.45,1.83c-8.08,0-10.03-6.02-10.03-11.24V14.96h-4.24V7.22h4.24V-3.73z"/>
<path d="M-192.79,8.49c3.73,0,6.8,1.24,9.07,3.46V-9.43h9.56v46.43h-9.45v-3.13h-0.11c-2.05,2.27-5.29,3.94-9.07,3.94
	c-8.1,0-13.77-6.53-13.77-14.63C-206.55,15.08-200.88,8.49-192.79,8.49z M-189.92,29.65c3.72,0,6.42-2.7,6.42-6.48
	c0-3.83-2.86-6.53-6.42-6.53c-3.62,0-6.48,2.7-6.48,6.53C-196.4,26.95-193.81,29.65-189.92,29.65z"/>
<rect x="-320.95" y="-3.18" width="14.1" height="10.26"/>
<rect x="-320.95" y="27.39" width="12.95" height="10.26"/>
<path d="M-219.45,67.63h9.52V96.3h-9.52v-2.87c-1.72,2.45-4.38,3.67-7.97,3.67c-3.09,0-5.63-1.06-7.59-3.18
	c-1.97-2.12-2.95-5.17-2.95-9.14V67.63h9.52v15.94c0,1.49,0.39,2.62,1.17,3.38c0.78,0.76,1.82,1.15,3.12,1.15
	c1.49,0,2.65-0.45,3.47-1.35c0.82-0.9,1.23-2.19,1.23-3.87V67.63z"/>
<path d="M-161.19,63.59c-1.09,1.09-2.38,1.63-3.87,1.63s-2.78-0.54-3.87-1.63c-1.09-1.09-1.63-2.38-1.63-3.87
	c0-1.49,0.54-2.77,1.63-3.84c1.09-1.07,2.38-1.6,3.87-1.6s2.78,0.54,3.87,1.6c1.09,1.07,1.63,2.35,1.63,3.84
	C-159.56,61.22-160.1,62.5-161.19,63.59z M-169.82,96.24V67.58h9.52v28.66H-169.82z"/>
<path d="M-136.74,67.63h9.52V96.3h-9.52v-2.87c-1.72,2.45-4.38,3.67-7.97,3.67c-3.09,0-5.63-1.06-7.59-3.18
	c-1.97-2.12-2.95-5.17-2.95-9.14V67.63h9.52v15.94c0,1.49,0.39,2.62,1.17,3.38c0.78,0.76,1.82,1.15,3.12,1.15
	c1.49,0,2.65-0.45,3.47-1.35c0.82-0.9,1.23-2.19,1.23-3.87V67.63z"/>
<path d="M-88.82,66.82c3.33,0,5.95,1.06,7.88,3.18c1.93,2.12,2.89,5.04,2.89,8.74v17.54h-9.57V79.84c0-2.67-1.18-4.01-3.55-4.01
	c-1.3,0-2.28,0.43-2.95,1.29c-0.67,0.86-1,2.03-1,3.53v15.65h-9.52V79.84c0-2.67-1.2-4.01-3.61-4.01c-1.3,0-2.28,0.43-2.95,1.29
	c-0.67,0.86-1,2.03-1,3.53v15.65h-9.52V67.63h9.52v2.69c1.76-2.33,4.34-3.5,7.74-3.5c3.29,0,5.73,1.22,7.34,3.67
	C-95.14,68.05-92.37,66.82-88.82,66.82z"/>
<path d="M-258.83,55.57h10.15v10.95h6.19v7.74h-6.19v9.34c0,2.75,0.69,4.07,2.29,4.07c1.32,0,2.52-0.92,2.52-0.92l2.52,8.2
	c0,0-3.27,1.83-7.45,1.83c-8.08,0-10.03-6.02-10.03-11.24V74.26h-4.24v-7.74h4.24V55.57z"/>
<path d="M-192.79,67.78c3.73,0,6.8,1.24,9.07,3.46V49.86h9.56v46.43h-9.45v-3.13h-0.11c-2.05,2.27-5.29,3.94-9.07,3.94
	c-8.1,0-13.77-6.53-13.77-14.63C-206.55,74.37-200.88,67.78-192.79,67.78z M-189.92,88.95c3.72,0,6.42-2.7,6.42-6.48
	c0-3.83-2.86-6.53-6.42-6.53c-3.62,0-6.48,2.7-6.48,6.53C-196.4,86.25-193.81,88.95-189.92,88.95z"/>
<path d="M-267.48,79.35c-0.68-1.46-1.73-2.65-3.13-3.58c-1.41-0.93-2.71-1.61-3.9-2.04c-1.2-0.43-2.74-0.99-4.64-1.67
	c-2.69-0.8-4.5-1.51-5.42-2.12c-0.93-0.61-1.39-1.35-1.39-2.23c0-0.76,0.31-1.39,0.94-1.89c0.63-0.5,1.55-0.74,2.76-0.74
	c2.88,0,5.02,1.11,6.9,3.74l7.84-4.31c-1.37-2.96-3.34-5.21-5.92-6.77c-2.34-1.41-4.95-1.6-7.9-1.62l0,0h-17.84h-10.26h-11.5v10.26
	h11.5v20.31h-11.5v10.26h11.5h1.45h26.87v-0.01c4.34-0.07,7.84-1.17,10.52-3.29c2.77-2.2,4.15-5.25,4.15-9.16
	C-266.46,82.52-266.8,80.8-267.48,79.35z M-281.31,87.22h-16.81h-1.07V66.37h3.76c-0.03,0.43-0.04,0.88-0.04,1.36
	c0,3.41,0.61,5.79,2.74,7.71c2.12,1.92,4.77,3.72,8.42,4.78c2.57,0.74,4.23,1.27,4.99,1.58c1.79,0.71,2.47,1.54,2.47,2.71
	C-276.86,86.27-278.2,87.22-281.31,87.22z"/>
<path d="M107.53-54.62h9.52v28.66h-9.52v-2.87c-1.72,2.45-4.38,3.67-7.97,3.67c-3.09,0-5.63-1.06-7.59-3.18
	c-1.97-2.12-2.95-5.17-2.95-9.14v-17.14h9.52v15.94c0,1.49,0.39,2.62,1.17,3.38c0.78,0.76,1.82,1.15,3.12,1.15
	c1.49,0,2.65-0.45,3.47-1.35c0.82-0.9,1.23-2.19,1.23-3.87V-54.62z"/>
<path d="M165.79-58.66c-1.09,1.09-2.38,1.63-3.87,1.63s-2.78-0.54-3.87-1.63c-1.09-1.09-1.63-2.38-1.63-3.87
	c0-1.49,0.54-2.77,1.63-3.84c1.09-1.07,2.38-1.6,3.87-1.6s2.78,0.54,3.87,1.6c1.09,1.07,1.63,2.35,1.63,3.84
	C167.42-61.04,166.88-59.75,165.79-58.66z M157.16-26.02v-28.66h9.52v28.66H157.16z"/>
<path d="M190.24-54.62h9.52v28.66h-9.52v-2.87c-1.72,2.45-4.38,3.67-7.97,3.67c-3.09,0-5.63-1.06-7.59-3.18
	c-1.97-2.12-2.95-5.17-2.95-9.14v-17.14h9.52v15.94c0,1.49,0.39,2.62,1.17,3.38c0.78,0.76,1.82,1.15,3.12,1.15
	c1.49,0,2.65-0.45,3.47-1.35c0.82-0.9,1.23-2.19,1.23-3.87V-54.62z"/>
<path d="M238.16-55.43c3.33,0,5.95,1.06,7.88,3.18c1.93,2.12,2.89,5.04,2.89,8.74v17.54h-9.57v-16.45c0-2.67-1.18-4.01-3.55-4.01
	c-1.3,0-2.28,0.43-2.95,1.29c-0.67,0.86-1,2.03-1,3.53v15.65h-9.52v-16.45c0-2.67-1.2-4.01-3.61-4.01c-1.3,0-2.28,0.43-2.95,1.29
	c-0.67,0.86-1,2.03-1,3.53v15.65h-9.52v-28.66h9.52v2.69c1.76-2.33,4.34-3.5,7.74-3.5c3.29,0,5.73,1.22,7.34,3.67
	C231.84-54.21,234.61-55.43,238.16-55.43z"/>
<path d="M68.15-66.69h10.15v10.95h6.19V-48h-6.19v9.34c0,2.75,0.69,4.07,2.29,4.07c1.32,0,2.52-0.92,2.52-0.92l2.52,8.2
	c0,0-3.27,1.83-7.45,1.83c-8.08,0-10.03-6.02-10.03-11.24V-48H63.9v-7.74h4.24V-66.69z"/>
<path d="M134.19-54.47c3.73,0,6.8,1.24,9.07,3.46V-72.4h9.56v46.43h-9.45v-3.13h-0.11c-2.05,2.27-5.29,3.94-9.07,3.94
	c-8.1,0-13.77-6.53-13.77-14.63C120.43-47.89,126.09-54.47,134.19-54.47z M137.05-33.31c3.72,0,6.42-2.7,6.42-6.48
	c0-3.83-2.86-6.53-6.42-6.53c-3.62,0-6.48,2.7-6.48,6.53C130.57-36.01,133.17-33.31,137.05-33.31z"/>
<path d="M59.5-42.91c-0.68-1.46-1.73-2.65-3.13-3.58c-1.41-0.93-2.71-1.61-3.9-2.04c-1.2-0.43-2.74-0.99-4.64-1.67
	c-2.69-0.8-4.5-1.51-5.42-2.12c-0.93-0.61-1.39-1.35-1.39-2.23c0-0.76,0.31-1.39,0.94-1.89c0.63-0.5,1.55-0.74,2.76-0.74
	c2.88,0,5.02,1.11,6.9,3.74l7.84-4.31c-1.37-2.96-3.34-5.21-5.92-6.77c-2.34-1.41-4.95-1.6-7.9-1.62l0,0H27.79H17.53H6.03v10.26
	h11.5v20.31H6.03v10.26h11.5h1.45h26.87v-0.01c4.34-0.07,7.84-1.17,10.52-3.29c2.77-2.2,4.15-5.25,4.15-9.16
	C60.52-39.74,60.18-41.45,59.5-42.91z M45.67-35.03H28.85h-1.07v-20.85h3.76c-0.03,0.43-0.04,0.88-0.04,1.36
	c0,3.41,0.61,5.79,2.74,7.71c2.12,1.92,4.77,3.72,8.42,4.78c2.57,0.74,4.23,1.27,4.99,1.58c1.79,0.71,2.47,1.54,2.47,2.71
	C50.12-35.98,48.78-35.03,45.67-35.03z"/>
<path d="M-267.48,148.91c-0.68-1.46-1.73-2.65-3.13-3.58c-1.41-0.93-2.71-1.61-3.9-2.04c-1.2-0.43-2.74-0.99-4.64-1.67
	c-2.69-0.8-4.5-1.51-5.42-2.12c-0.93-0.61-1.39-1.35-1.39-2.23c0-0.76,0.31-1.39,0.94-1.89c0.63-0.5,1.55-0.74,2.76-0.74
	c2.88,0,5.02,1.11,6.9,3.74l7.84-4.31c-1.37-2.96-3.34-5.21-5.92-6.77c-2.34-1.41-4.95-1.6-7.9-1.62l0,0h-17.84h-10.26h-11.5v10.26
	h11.5v20.31h-11.5v10.26h11.5h1.45h26.87v-0.01c4.34-0.07,7.84-1.17,10.52-3.29c2.77-2.2,4.15-5.25,4.15-9.16
	C-266.46,152.08-266.8,150.37-267.48,148.91z M-281.31,156.79h-16.81h-1.07v-20.85h3.76c-0.03,0.43-0.04,0.88-0.04,1.36
	c0,3.41,0.61,5.79,2.74,7.71c2.12,1.92,4.77,3.72,8.42,4.78c2.57,0.74,4.23,1.27,4.99,1.58c1.79,0.71,2.47,1.54,2.47,2.71
	C-276.86,155.84-278.2,156.79-281.31,156.79z"/>
<path d="M63.4,39.76c-0.68-1.46-1.73-2.65-3.13-3.58c-1.41-0.93-2.71-1.61-3.9-2.04c-1.2-0.43-2.74-0.99-4.64-1.67
	c-2.69-0.8-4.5-1.51-5.42-2.12c-0.93-0.61-1.39-1.35-1.39-2.23c0-0.76,0.31-1.39,0.94-1.89c0.63-0.5,1.55-0.74,2.76-0.74
	c2.88,0,5.02,1.11,6.9,3.74l7.84-4.31c-1.37-2.96-3.34-5.21-5.92-6.77c-2.34-1.41-4.95-1.6-7.9-1.62l0,0H31.69H21.43H9.93v10.26
	h11.5V47.1H9.93v10.26h11.5h1.45h26.87v-0.01c4.34-0.07,7.84-1.17,10.52-3.29c2.77-2.2,4.15-5.25,4.15-9.16
	C64.42,42.93,64.08,41.22,63.4,39.76z M49.57,47.64H32.75h-1.07V26.79h3.76c-0.03,0.43-0.04,0.88-0.04,1.36
	c0,3.41,0.61,5.79,2.74,7.71c2.12,1.92,4.77,3.72,8.42,4.78c2.57,0.74,4.23,1.27,4.99,1.58c1.79,0.71,2.47,1.54,2.47,2.71
	C54.02,46.69,52.68,47.64,49.57,47.64z"/>
</svg>
